<?xml version="1.0" encoding="UTF-8" standalone="no"?>
<!-- Created with Inkscape (http://www.inkscape.org/) -->

<svg
   width="256"
   height="256"
   viewBox="0 0 170.66667 170.66667"
   version="1.1"
   id="svg5"
   sodipodi:docname="转转雀 - icon.svg"
   inkscape:version="1.2.1 (9c6d41e410, 2022-07-14)"
   inkscape:export-filename="转转雀 - icon.svg"
   inkscape:export-xdpi="13004.8"
   inkscape:export-ydpi="13004.8"
   xmlns:inkscape="http://www.inkscape.org/namespaces/inkscape"
   xmlns:sodipodi="http://sodipodi.sourceforge.net/DTD/sodipodi-0.dtd"
   xmlns="http://www.w3.org/2000/svg"
   xmlns:svg="http://www.w3.org/2000/svg">
  <sodipodi:namedview
     id="namedview7"
     pagecolor="#ffffff"
     bordercolor="#000000"
     borderopacity="0.25"
     inkscape:showpageshadow="2"
     inkscape:pageopacity="0.0"
     inkscape:pagecheckerboard="false"
     inkscape:deskcolor="#d1d1d1"
     inkscape:document-units="mm"
     showgrid="false"
     inkscape:zoom="2.6367188"
     inkscape:cx="108.27852"
     inkscape:cy="128.37926"
     inkscape:window-width="1440"
     inkscape:window-height="878"
     inkscape:window-x="-6"
     inkscape:window-y="-6"
     inkscape:window-maximized="1"
     inkscape:current-layer="layer1"
     shape-rendering="auto" />
  <defs
     id="defs2">
    <rect
       x="272.30615"
       y="574.34003"
       width="311.54678"
       height="160.52983"
       id="rect8148" />
  </defs>
  <g
     inkscape:label="图层 1"
     inkscape:groupmode="layer"
     id="layer1"
     transform="translate(-23.576869,-39.349934)"
     inkscape:export-filename=".\转转雀-1k.png"
     inkscape:export-xdpi="471.07516"
     inkscape:export-ydpi="471.07516"
     sodipodi:insensitive="true">
    <path
       id="path1114"
       style="fill:#ffdf71;fill-opacity:1;stroke-width:0.264583"
       d="m 105.39718,167.37686 a 52.541313,39.012711 0 0 0 -47.283931,22.05085 70.077728,60.511559 0 0 0 43.999901,13.46378 70.077728,60.511559 0 0 0 48.25028,-16.6765 52.541313,39.012711 0 0 0 -44.96625,-18.83813 z" />
    <path
       id="path8061"
       style="fill:#e9afaf;fill-opacity:1;stroke-width:0.264583"
       d="m 111.98076,109.85996 a 66.07328,54.282429 0 0 0 -17.169493,-1.86655 66.07328,54.282429 0 0 0 -55.554232,24.89977 60.406776,60.406776 0 0 0 4.065902,1.46761 60.406776,60.406776 0 0 0 4.448824,1.23093 60.406776,60.406776 0 0 0 4.529956,0.8878 60.406776,60.406776 0 0 0 4.584733,0.53899 60.406776,60.406776 0 0 0 4.612122,0.18759 60.406776,60.406776 0 0 0 4.466911,-0.16744 60.406776,60.406776 0 0 0 4.442106,-0.49712 60.406776,60.406776 0 0 0 4.393013,-0.82476 60.406776,60.406776 0 0 0 4.320667,-1.1467 60.406776,60.406776 0 0 0 4.223515,-1.46348 60.406776,60.406776 0 0 0 4.103625,-1.77146 60.406776,60.406776 0 0 0 3.961515,-2.07016 60.406776,60.406776 0 0 0 3.797701,-2.35748 60.406776,60.406776 0 0 0 3.613216,-2.63188 60.406776,60.406776 0 0 0 3.408059,-2.89233 60.406776,60.406776 0 0 0 3.18534,-3.13573 60.406776,60.406776 0 0 0 2.94452,-3.3631 60.406776,60.406776 0 0 0 2.68821,-3.57136 60.406776,60.406776 0 0 0 0.93379,-1.45314 z" />
    <path
       id="path1114-1"
       style="fill:#ffc909;fill-opacity:1;stroke-width:0.209949"
       d="m 105.19597,167.37686 a 43.418356,29.726214 0 0 0 -39.073838,16.80191 57.909853,46.107525 0 0 0 36.360028,10.25889 57.909853,46.107525 0 0 0 39.87239,-12.70686 43.418356,29.726214 0 0 0 -37.15858,-14.35394 z" />
    <path
       id="path842"
       style="fill:#c5464a;fill-opacity:1;stroke-width:0.264583"
       d="M 151.38094,81.760384 A 43.731991,43.731991 0 0 1 135.82117,84.62946 43.731991,43.731991 0 0 1 121.63289,82.23219 60.406776,60.406776 0 0 1 61.498572,137.2061 60.406776,60.406776 0 0 1 38.981083,132.79344 64.496819,64.496819 0 0 0 102.88054,188.77142 64.496819,64.496819 0 0 0 167.37686,124.27458 64.496819,64.496819 0 0 0 151.38094,81.760384 Z" />
    <circle
       style="fill:#ffffff;fill-opacity:1;stroke-width:0.264583"
       id="path5614"
       cx="135.92854"
       cy="101.22338"
       r="2.4471586" />
    <circle
       style="fill:#ffffff;fill-opacity:1;stroke-width:0.264583"
       id="path5614-8"
       cx="152.16878"
       cy="97.886353"
       r="2.4471586" />
    <ellipse
       style="fill:#f9be00;fill-opacity:1;stroke-width:0.264583"
       id="path5872"
       cx="135.62447"
       cy="137.51469"
       rx="19.13233"
       ry="5.5617242"
       transform="rotate(-10.955961)" />
    <ellipse
       style="fill:#ffdf71;fill-opacity:1;stroke-width:0.226435"
       id="path5872-44"
       cx="136.47113"
       cy="135.36966"
       rx="16.835459"
       ry="4.6293058"
       transform="matrix(0.98378314,-0.17936203,0.20133382,0.97952269,0,0)" />
    <path
       id="path842-8"
       style="fill:#800000;fill-opacity:1;stroke-width:0.264583"
       d="m 151.38352,81.764001 a 43.731991,43.731991 0 0 1 -6.04252,1.810743 43.731991,43.731991 0 0 1 -0.10594,0.02325 43.731991,43.731991 0 0 1 -2.98896,0.550871 43.731991,43.731991 0 0 1 -0.14935,0.02274 43.731991,43.731991 0 0 1 -3.02048,0.33228 43.731991,43.731991 0 0 1 -0.11834,0.0098 43.731991,43.731991 0 0 1 -3.13676,0.115756 43.731991,43.731991 0 0 1 -14.18828,-2.39727 60.406776,60.406776 0 0 1 -0.61909,4.691703 60.406776,60.406776 0 0 1 -0.31057,1.523421 60.406776,60.406776 0 0 1 -0.67438,3.111438 60.406776,60.406776 0 0 1 -0.4992,1.768885 60.406776,60.406776 0 0 1 -0.84646,2.778641 60.406776,60.406776 0 0 1 -0.66765,1.835547 60.406776,60.406776 0 0 1 -1.03147,2.597774 60.406776,60.406776 0 0 1 -0.82217,1.82469 60.406776,60.406776 0 0 1 -1.22318,2.4691 60.406776,60.406776 0 0 1 -0.95963,1.76837 60.406776,60.406776 0 0 1 -1.43816,2.38642 60.406776,60.406776 0 0 1 -1.05833,1.64693 60.406776,60.406776 0 0 1 -1.69137,2.34611 60.406776,60.406776 0 0 1 -1.11466,1.48104 60.406776,60.406776 0 0 1 -2.05465,2.40606 60.406776,60.406776 0 0 1 -1.03508,1.18236 60.406776,60.406776 0 0 1 -3.35794,3.33261 60.406776,60.406776 0 0 1 -3.621999,3.04839 60.406776,60.406776 0 0 1 -1.25212,0.91209 60.406776,60.406776 0 0 1 -2.598291,1.84382 60.406776,60.406776 0 0 1 -1.570447,0.97461 60.406776,60.406776 0 0 1 -2.488737,1.47537 60.406776,60.406776 0 0 1 -1.736845,0.90743 60.406776,60.406776 0 0 1 -2.50889,1.2206 60.406776,60.406776 0 0 1 -1.839165,0.79375 60.406776,60.406776 0 0 1 -2.572452,0.99942 60.406776,60.406776 0 0 1 -1.891358,0.65526 60.406776,60.406776 0 0 1 -2.678389,0.79427 60.406776,60.406776 0 0 1 -1.894458,0.50281 60.406776,60.406776 0 0 1 -2.81895,0.58963 60.406776,60.406776 0 0 1 -1.829345,0.34313 60.406776,60.406776 0 0 1 -3.140377,0.39119 60.406776,60.406776 0 0 1 -1.563212,0.17466 60.406776,60.406776 0 0 1 -4.725293,0.19638 60.406776,60.406776 0 0 1 -4.627625,-0.18914 60.406776,60.406776 0 0 1 -4.111893,-0.48369 60.406776,60.406776 0 0 1 -0.482658,-0.0589 60.406776,60.406776 0 0 1 -4.355807,-0.85318 60.406776,60.406776 0 0 1 -0.164848,-0.0341 60.406776,60.406776 0 0 1 -4.426603,-1.22473 60.406776,60.406776 0 0 1 -0.0072,-0.002 60.406776,60.406776 0 0 1 -4.340303,-1.56476 64.496819,64.496819 0 0 0 0.456303,2.68304 60.406776,60.406776 0 0 0 25.652698,5.79448 60.406776,60.406776 0 0 0 60.134314,-54.973904 43.731991,43.731991 0 0 0 14.18829,2.39727 43.731991,43.731991 0 0 0 15.2988,-2.768823 64.496819,64.496819 0 0 0 -3.32848,-4.163571 z" />
    <path
       id="path5872-4"
       style="fill:#ffdf71;fill-opacity:1;stroke-width:0.45891"
       d="m 46.465898,-114.10931 a 18.687391,17.130112 0 0 0 0.395324,3.45715 23.581713,30.478249 0 0 0 13.65033,5.64668 23.581713,30.478249 0 0 0 21.165116,-17.08009 18.687391,17.130112 0 0 0 -16.523022,-9.15396 18.687391,17.130112 0 0 0 -18.687748,17.13022 z"
       transform="rotate(90)" />
    <path
       id="path5872-4-0"
       style="fill:#d5a500;fill-opacity:1;stroke-width:0.45891"
       d="m 109.76798,47.877181 a 30.478249,23.581713 0 0 0 -4.7625,12.634371 30.478249,23.581713 0 0 0 16.37316,20.879346 27.141214,30.255777 0 0 0 0.97927,-7.976258 27.141214,30.255777 0 0 0 -12.58993,-25.537459 z" />
    <g
       aria-label="转转雀"
       transform="matrix(0.38333476,-0.10500303,0.10500303,0.38333476,-92.394339,-43.621979)"
       id="text8146"
       style="font-size:74.6667px;white-space:pre;shape-inside:url(#rect8148);display:inline;fill:#e9afaf">
      <path
         d="m 301.50132,622.44986 q 1.71734,-3.73333 3.136,-7.46667 1.49334,-3.808 2.76267,-7.69067 h -6.272 l 0.59733,-6.34667 h 7.616 q 1.19467,-4.256 2.31467,-8.96 h -7.09333 l 0.59733,-6.34667 h 7.84 q 0.52267,-2.31467 0.97067,-4.704 0.448,-2.464 0.896,-5.00267 l 6.42134,0.672 q -0.37334,2.31467 -0.82134,4.55467 -0.448,2.24 -0.896,4.48 H 330.248 l -0.59733,6.34667 h -11.42401 q -0.448,2.24 -1.04533,4.48 -0.52267,2.24 -1.19467,4.48 h 13.66401 l -0.59734,6.34667 h -14.93334 q -1.12,3.73334 -2.464,7.39201 h 9.40801 q 3.95733,0 5.152,2.16533 1.26933,2.09067 -0.448,5.74934 -2.09067,4.40533 -4.256,8.288 -2.16534,3.88267 -4.704,7.46667 2.464,3.136 4.928,6.72 l -4.928,4.18134 Q 309.78933,638.9512 301.94932,631.3352 l 4.928,-4.18133 q 2.83734,2.76266 5.52534,5.824 1.86667,-2.53867 3.584,-5.52534 1.71734,-3.06133 3.21067,-6.57067 h -10.00534 q -0.82133,2.09067 -1.792,4.18134 z m -24.19201,12.84268 -0.74667,-6.34667 q 2.688,-0.448 5.37601,-0.97067 2.688,-0.52267 5.376,-1.04533 l 1.12,-10.67734 h -4.40534 q -0.37333,0.896 -0.74666,1.86666 l -5.37601,-2.76266 q 2.24,-5.07734 4.25601,-10.67734 2.09066,-5.67467 3.88266,-11.79734 h -4.256 l 0.59734,-6.34667 h 5.45066 q 1.19467,-4.704 2.31467,-9.632 l 5.97334,0.672 q -0.97067,4.55466 -2.16534,8.96 h 9.18401 l -0.59733,6.34667 h -10.30401 q -0.896,2.98667 -1.792,5.89867 h 5.89867 l -1.19467,11.57334 h 5.152 l -0.52266,5.89867 h -5.22667 l -0.97067,9.25867 q 2.76267,-0.672 5.45067,-1.41867 l 0.74667,6.272 q -3.50934,0.97067 -6.86934,1.792 l -1.71733,16.27735 h -6.12267 l 1.568,-14.85868 q -4.85334,0.97067 -9.33334,1.71734 z m 9.10934,-24.93868 h 2.61333 l 1.12,-10.60267 q -1.792,5.376 -3.73333,10.60267 z"
         style="font-family:'Smiley Sans';-inkscape-font-specification:'Smiley Sans'"
         id="path272" />
      <path
         d="m 361.23462,622.44986 q 1.71734,-3.73333 3.13601,-7.46667 1.49333,-3.808 2.76266,-7.69067 h -6.272 l 0.59733,-6.34667 h 7.61601 q 1.19467,-4.256 2.31467,-8.96 h -7.09334 l 0.59733,-6.34667 h 7.84001 q 0.52266,-2.31467 0.97066,-4.704 0.448,-2.464 0.896,-5.00267 l 6.42134,0.672 q -0.37333,2.31467 -0.82133,4.55467 -0.448,2.24 -0.896,4.48 h 10.67733 l -0.59733,6.34667 h -11.424 q -0.448,2.24 -1.04534,4.48 -0.52267,2.24 -1.19467,4.48 h 13.66401 l -0.59733,6.34667 H 373.8533 q -1.12,3.73334 -2.464,7.39201 h 9.408 q 3.95734,0 5.152,2.16533 1.26934,2.09067 -0.448,5.74934 -2.09067,4.40533 -4.256,8.288 -2.16533,3.88267 -4.704,7.46667 2.464,3.136 4.928,6.72 l -4.928,4.18134 Q 369.52263,638.9512 361.68262,631.3352 l 4.92801,-4.18133 q 2.83733,2.76266 5.52533,5.824 1.86667,-2.53867 3.584,-5.52534 1.71734,-3.06133 3.21067,-6.57067 h -10.00534 q -0.82133,2.09067 -1.792,4.18134 z m -24.19201,12.84268 -0.74666,-6.34667 q 2.688,-0.448 5.376,-0.97067 2.688,-0.52267 5.376,-1.04533 l 1.12,-10.67734 h -4.40533 q -0.37334,0.896 -0.74667,1.86666 l -5.376,-2.76266 q 2.24,-5.07734 4.256,-10.67734 2.09067,-5.67467 3.88267,-11.79734 h -4.25601 l 0.59734,-6.34667 h 5.45067 q 1.19467,-4.704 2.31467,-9.632 l 5.97333,0.672 q -0.97067,4.55466 -2.16533,8.96 h 9.184 l -0.59733,6.34667 h -10.30401 q -0.896,2.98667 -1.792,5.89867 h 5.89867 l -1.19467,11.57334 h 5.15201 l -0.52267,5.89867 h -5.22667 l -0.97067,9.25867 q 2.76267,-0.672 5.45067,-1.41867 l 0.74667,6.272 q -3.50933,0.97067 -6.86934,1.792 l -1.71733,16.27735 h -6.12267 l 1.568,-14.85868 q -4.85334,0.97067 -9.33334,1.71734 z m 9.10934,-24.93868 h 2.61334 l 1.12,-10.60267 q -1.79201,5.376 -3.73334,10.60267 z"
         style="font-family:'Smiley Sans';-inkscape-font-specification:'Smiley Sans'"
         id="path274" />
      <path
         d="m 400.95725,648.50854 3.808,-36.43735 q -2.38933,0.74667 -5.00267,1.568 l -1.71733,-5.89867 q 9.184,-2.688 16.12801,-5.67467 7.01867,-2.98666 13.06667,-7.168 h -5.74934 l 1.94134,-18.59201 h 6.57067 l -1.86667,17.92001 q 2.98667,-2.09067 5.89867,-4.62934 l 3.88267,4.62934 q -5.89867,5.07734 -12.17067,8.736 -6.19734,3.65867 -14.11201,6.72001 l -0.0747,0.14933 h 15.00801 q -0.74667,-2.912 -1.64267,-4.85333 l 5.74934,-1.71734 q 1.344,3.06134 2.16533,6.57067 h 10.90134 l -0.59733,5.824 H 429.4799 l -0.52267,4.48001 h 12.99201 l -0.59733,5.22667 H 428.4346 l -0.448,4.256 h 12.84267 l -0.59733,5.22667 h -12.76801 l -0.52267,4.55467 h 15.45601 l -0.59733,5.824 h -33.89869 l -0.37333,3.28533 z m 17.84534,-66.1547 q -2.83733,5.00267 -6.12267,9.18401 -3.21066,4.18133 -7.168,7.69067 l -4.40534,-4.18134 q 3.50934,-3.136 6.72001,-7.168 3.21067,-4.10667 5.52533,-8.43734 z m 30.61335,13.29068 -5.52534,3.65867 q -2.31466,-4.85334 -4.928,-8.73601 -2.53867,-3.95733 -5.152,-7.46667 l 5.152,-3.50933 q 2.61334,3.36 5.30134,7.46667 2.76267,4.10667 5.152,8.58667 z m -38.90135,24.49068 h 12.02134 l 0.52267,-4.48001 h -12.09601 z m -0.97067,9.48267 h 12.02134 l 0.448,-4.256 h -12.02134 z m -1.04533,9.78134 h 12.02134 l 0.52266,-4.55467 h -12.096 z"
         style="font-family:'Smiley Sans';-inkscape-font-specification:'Smiley Sans'"
         id="path276" />
    </g>
  </g>
</svg>
